<svg width="123" height="123" viewBox="0 0 123 123" fill="none" xmlns="http://www.w3.org/2000/svg">
<path d="M30.8477 32.9092H36.2217C38.9491 32.9092 41.2897 34.8736 41.7744 37.5742L41.7764 37.584L41.7783 37.5928L41.8262 37.8311L41.9863 38.6367H90.252C92.5935 38.6368 94.3744 40.7893 93.9316 43.1299L90.7998 59.4746C89.9397 63.9487 86.0524 67.1816 81.5312 67.1816H47.1406L47.3506 68.3584L47.9561 71.7354L47.957 71.7393C48.292 73.5669 49.8742 74.9091 51.7402 74.9092H82.1016C83.1216 74.9094 83.9481 75.7328 83.9482 76.7725C83.9482 77.8123 83.1217 78.6365 82.1016 78.6367H51.7402C48.0994 78.6366 44.9747 76.0156 44.3242 72.4072V72.4062L38.1436 38.2461L38.1426 38.2441L38.1045 38.0742C37.8749 37.2424 37.1181 36.6367 36.2217 36.6367H30.8477C29.8273 36.6367 29 35.8125 29 34.7725C29.0002 33.7326 29.8275 32.9092 30.8477 32.9092ZM42.8545 43.542L46.3076 62.6328L46.4561 63.4551H81.5312C84.2909 63.4551 86.6601 61.4887 87.1768 58.7754L90.0713 43.5508L90.2969 42.3633H42.6416L42.8545 43.542Z" fill="#CC802A" stroke="#2C273E" stroke-width="2"/>
<path d="M51.7295 81.1365C52.8391 81.1366 53.9051 81.5801 54.6924 82.3718C55.4799 83.1639 55.9238 84.2402 55.9238 85.364C55.9238 86.4878 55.48 87.5641 54.6924 88.3562C53.9051 89.1479 52.8391 89.5905 51.7295 89.5906C50.6197 89.5906 49.553 89.148 48.7656 88.3562C47.978 87.5641 47.5342 86.4878 47.5342 85.364C47.5342 84.2402 47.9781 83.1639 48.7656 82.3718C49.553 81.58 50.6197 81.1365 51.7295 81.1365ZM78.3047 81.1365C79.4145 81.1365 80.4812 81.58 81.2686 82.3718C82.056 83.1639 82.5 84.2403 82.5 85.364C82.4999 86.4878 82.0561 87.5641 81.2686 88.3562C80.4812 89.148 79.4145 89.5906 78.3047 89.5906C77.1951 89.5905 76.1291 89.1479 75.3418 88.3562C74.5542 87.5641 74.1104 86.4878 74.1104 85.364C74.1104 84.2402 74.5542 83.1639 75.3418 82.3718C76.1291 81.5801 77.195 81.1366 78.3047 81.1365Z" fill="#CC802A" stroke="#2C273E" stroke-width="3"/>
</svg>
