<?xml version="1.0" encoding="UTF-8"?>
<svg id="Layer_1" xmlns="http://www.w3.org/2000/svg" version="1.1" viewBox="0 0 123 123">
  <!-- Generator: Adobe Illustrator 29.8.1, SVG Export Plug-In . SVG Version: 2.1.1 Build 2)  -->
  <defs>
    <style>
      .st0 {
        fill: #cc802a;
      }
    </style>
  </defs>
  <path class="st0" d="M3.5,7.6h10.2c5.2,0,9.6,3.7,10.5,8.8h0s0,0,0,0v.5c0,0,.4,1.5.4,1.5h91.3c4.4,0,7.8,4.1,7,8.5l-5.9,30.9c-1.6,8.5-9,14.6-17.5,14.6H34.3l.4,2.2,1.1,6.4h0c.6,3.5,3.6,6,7.2,6h57.5c1.9,0,3.5,1.6,3.5,3.5,0,2-1.6,3.5-3.5,3.5h-57.5c-6.9,0-12.8-5-14-11.8h0S17.3,17.7,17.3,17.7h0s0-.3,0-.3c-.4-1.6-1.9-2.7-3.6-2.7H3.5C1.6,14.7,0,13.1,0,11.1c0-2,1.6-3.5,3.5-3.5ZM26.2,27.7l6.5,36.1.3,1.6h66.4c5.2,0,9.7-3.7,10.7-8.9l5.5-28.8.4-2.2H25.8l.4,2.2Z"/>
  <path class="st0" d="M43,98.9c2.1,0,4.1.8,5.6,2.3,1.5,1.5,2.3,3.5,2.3,5.7s-.8,4.2-2.3,5.7c-1.5,1.5-3.5,2.3-5.6,2.3-2.1,0-4.1-.8-5.6-2.3-1.5-1.5-2.3-3.5-2.3-5.7s.8-4.2,2.3-5.7c1.5-1.5,3.5-2.3,5.6-2.3ZM93.3,98.9c2.1,0,4.1.8,5.6,2.3,1.5,1.5,2.3,3.5,2.3,5.7,0,2.1-.8,4.2-2.3,5.7-1.5,1.5-3.5,2.3-5.6,2.3-2.1,0-4.1-.8-5.6-2.3-1.5-1.5-2.3-3.5-2.3-5.7s.8-4.2,2.3-5.7c1.5-1.5,3.5-2.3,5.6-2.3Z"/>
</svg>