<?xml version="1.0" encoding="UTF-8"?>
<svg id="Layer_1" data-name="Layer 1" xmlns="http://www.w3.org/2000/svg" viewBox="0 0 97.85 112.86">
  <path d="M30.41,50c.48.01.95.03,1.41.05l1.09-8.6h2.12l3.04,9.2c7.44,1.18,13.25,4.21,17.02,11.57l6.84-20.77h2.12l5.4,42.58c6.87,1.55,15.52-.02,21.69-1.96,2.39-5.57,3.73-11.7,3.73-18.14,0-25.38-20.57-45.95-45.95-45.95-10.04,0-19.33,3.23-26.89,8.7-1.91,8.62-2.46,22.98,8.37,23.31Z" style="fill: none;"/>
  <path d="M63.29,11.08l-3.04,5.26c8.59,2.04,16.29,6.33,22.46,12.23l2.72-4.7-22.14-12.78Z" style="fill: none;"/>
  <path d="M55.6,63.26c1.28,2.77,2.29,6.09,3.02,10.1.71,3.9,2.61,6.58,5.21,8.35l-3.95-31.44-4.28,12.99Z" style="fill: none;"/>
  <g>
    <path d="M84.65,30.51l3.08-5.33,2.53,1.46c.71.41,1.58.23,1.95-.4.37-.63.09-1.48-.62-1.89L59.03,5.56c-.71-.41-1.58-.23-1.95.4-.37.63-.09,1.48.62,1.89l3.3,1.9-3.47,6.02c-2.79-.5-5.66-.77-8.6-.77C21.91,15.01,0,36.91,0,63.93s21.91,48.93,48.93,48.93,48.93-21.9,48.93-48.93c0-12.93-5.02-24.67-13.21-33.42ZM63.29,11.08l22.14,12.78-2.72,4.7c-6.17-5.9-13.88-10.19-22.46-12.23l3.04-5.26ZM94.87,63.93c0,6.44-1.33,12.57-3.73,18.14-6.17,1.94-14.82,3.51-21.69,1.96l.19,1.5h-5.33l-.48-3.82c-2.6-1.77-4.5-4.45-5.21-8.35-.73-4.01-1.75-7.34-3.02-10.1l-7.34,22.27h-4.05l-11.75-34.82-4.3,34.82h-.83l4.5-35.48c-.47-.02-.94-.04-1.41-.05-10.84-.33-10.28-14.69-8.37-23.31,7.56-5.47,16.84-8.7,26.89-8.7,25.38,0,45.95,20.57,45.95,45.95Z" style="fill: #cc802a;"/>
    <path d="M60.79,2.51l32.55,18.79c.71.41,1.58.23,1.95-.4.37-.63.09-1.48-.62-1.89L62.11.22c-.71-.41-1.58-.23-1.95.4s-.09,1.48.62,1.89Z" style="fill: #cc802a;"/>
    <path d="M61.94,41.45l-6.84,20.77c.17.34.34.68.5,1.04l4.28-12.99,3.95,31.44c1.63,1.11,3.55,1.86,5.62,2.33l-5.4-42.58h-2.12Z" style="fill: #cc802a;"/>
    <path d="M35.03,41.45h-2.12l-1.09,8.6c2.19.1,4.28.28,6.25.6l-3.04-9.2Z" style="fill: #cc802a;"/>
    <path d="M55.1,62.22c-3.77-7.36-9.58-10.39-17.02-11.57l10.44,31.54,6.58-19.97Z" style="fill: #cc802a;"/>
  </g>
</svg>