<svg width="123" height="123" viewBox="0 0 123 123" fill="none" xmlns="http://www.w3.org/2000/svg">
<path d="M94.8376 67.1332C94.8376 48.7214 79.9118 33.7956 61.5 33.7956C43.0882 33.7956 28.1624 48.7214 28.1624 67.1332C28.1624 85.545 43.0882 100.471 61.5 100.471V102.633C41.8939 102.633 26 86.7393 26 67.1332C26 47.5271 41.8939 31.6332 61.5 31.6332C81.1061 31.6332 97 47.5271 97 67.1332C97 86.7393 81.1061 102.633 61.5 102.633V100.471C79.9118 100.471 94.8376 85.545 94.8376 67.1332Z" fill="#CC802A"/>
<path d="M92.4456 38.4179C92.9604 38.7152 93.163 39.3281 92.8981 39.7871C92.6331 40.246 92.001 40.377 91.4861 40.0797L67.8692 26.4445C67.3543 26.1472 67.1517 25.5342 67.4167 25.0753C67.6816 24.6164 68.3138 24.4854 68.8286 24.7827L92.4456 38.4179Z" fill="#CC802A"/>
<path d="M94.6843 34.5403C95.1992 34.8375 95.4018 35.4505 95.1368 35.9094C94.8719 36.3683 94.2397 36.4994 93.7249 36.2021L70.1079 22.5669C69.5931 22.2696 69.3905 21.6566 69.6554 21.1977C69.9203 20.7388 70.5525 20.6078 71.0674 20.905L94.6843 34.5403Z" fill="#CC802A"/>
<path d="M46.4345 82.8044H45.8288L49.8821 50.8224H51.4196L61.2035 80.3829L70.9408 50.8224H72.4782L76.5315 82.8044H72.6646L69.4499 57.2188L61.0171 82.8044H58.082L49.556 57.5386L46.4345 82.8044Z" fill="#CC802A"/>
<path d="M72.2423 28.2307L69.0441 33.7701L67.3822 32.8107L70.5804 27.2712L72.2423 28.2307Z" fill="#CC802A"/>
<path d="M89.9685 38.4649L86.7703 44.0044L85.1084 43.0449L88.3066 37.5055L89.9685 38.4649Z" fill="#CC802A"/>
<path d="M48.0676 57.0225C39.6243 56.7667 40.7117 44.7628 42.3108 38.7928C24.0811 49.3468 18.0045 87.4054 48.7072 99.2387C73.2694 108.705 89.0045 90.1772 93.8018 79.7297C86.2327 82.5015 70.5829 85.2306 68.536 73.973C65.9775 59.9009 58.6216 57.3423 48.0676 57.0225Z" fill="#CC802A"/>
<mask id="mask0_1_43" style="mask-type:alpha" maskUnits="userSpaceOnUse" x="27" y="38" width="67" height="64">
<path d="M48.0676 57.0225C39.6243 56.7667 40.7117 44.7628 42.3108 38.7928C24.0811 49.3468 18.0045 87.4054 48.7072 99.2387C73.2694 108.705 89.0045 90.1772 93.8018 79.7297C86.2327 82.5015 70.5829 85.2306 68.536 73.973C65.9775 59.9009 58.6216 57.3423 48.0676 57.0225Z" fill="#F8C761"/>
</mask>
<g mask="url(#mask0_1_43)">
<path d="M46.4345 82.8044H45.8288L49.8821 50.8224H51.4196L61.2035 80.3829L70.9408 50.8224H72.4782L76.5315 82.8044H72.6646L69.4499 57.2188L61.0171 82.8044H58.082L49.556 57.5386L46.4345 82.8044Z" fill="#2C273E"/>
</g>
</svg>
